<svg width="300" height="300" viewBox="0 0 300 300" fill="none" xmlns="http://www.w3.org/2000/svg">
<path d="M224.184 145.064L225.527 140.248L224.184 145.064ZM229.424 150.342L234.296 149.216L229.424 150.342ZM160.024 71.074L161.757 66.3841L160.024 71.074ZM164.563 76.9836L159.618 77.7202L164.563 76.9836ZM252.701 25C252.701 22.2386 250.463 20 247.701 20C244.94 20 242.701 22.2386 242.701 25H252.701ZM242.701 107.507C242.701 110.269 244.94 112.507 247.701 112.507C250.463 112.507 252.701 110.269 252.701 107.507H242.701ZM207.201 61.4368C204.44 61.4368 202.201 63.6754 202.201 66.4368C202.201 69.1982 204.44 71.4368 207.201 71.4368V61.4368ZM287.5 71.4368C290.261 71.4368 292.5 69.1982 292.5 66.4368C292.5 63.6754 290.261 61.4368 287.5 61.4368V71.4368ZM89.8259 195.509C88.3901 193.15 85.314 192.402 82.9552 193.837C80.5964 195.273 79.8481 198.349 81.2839 200.708L89.8259 195.509ZM168.893 200.708C170.328 198.349 169.58 195.273 167.221 193.837C164.863 192.402 161.786 193.15 160.351 195.509L168.893 200.708ZM90.3657 136.781V131.781C87.6043 131.781 85.3657 134.02 85.3657 136.781H90.3657ZM91.5016 136.781H96.5016C96.5016 134.02 94.263 131.781 91.5016 131.781V136.781ZM158.788 136.781V131.781C156.026 131.781 153.788 134.02 153.788 136.781H158.788ZM159.798 136.781H164.798C164.798 134.02 162.559 131.781 159.798 131.781V136.781ZM91.5016 137.71V142.71C94.263 142.71 96.5016 140.471 96.5016 137.71H91.5016ZM90.3657 137.71H85.3657C85.3657 140.471 87.6043 142.71 90.3657 142.71V137.71ZM159.798 137.71V142.71C162.559 142.71 164.798 140.471 164.798 137.71H159.798ZM158.788 137.71H153.788C153.788 140.471 156.026 142.71 158.788 142.71V137.71ZM161.757 66.3841C149.478 61.8462 136.226 59.3725 122.415 59.3725V69.3725C135.024 69.3725 147.103 71.6295 158.29 75.764L161.757 66.3841ZM225.527 140.248C196.418 132.133 174.112 107.156 169.509 76.2471L159.618 77.7202C164.799 112.507 189.907 140.699 222.841 149.881L225.527 140.248ZM237.33 175.936C237.33 166.748 236.281 157.801 234.296 149.216L224.553 151.469C226.369 159.32 227.33 167.511 227.33 175.936H237.33ZM122.415 292.5C185.951 292.5 237.33 240.242 237.33 175.936H227.33C227.33 234.86 180.288 282.5 122.415 282.5V292.5ZM7.5 175.936C7.5 240.242 58.8793 292.5 122.415 292.5V282.5C64.542 282.5 17.5 234.86 17.5 175.936H7.5ZM122.415 59.3725C58.8793 59.3725 7.5 111.63 7.5 175.936H17.5C17.5 117.012 64.542 69.3725 122.415 69.3725V59.3725ZM222.841 149.881C223.85 150.162 224.41 150.849 224.553 151.469L234.296 149.216C233.229 144.602 229.616 141.388 225.527 140.248L222.841 149.881ZM158.29 75.764C158.798 75.9516 159.447 76.5721 159.618 77.7202L169.509 76.2471C168.888 72.0812 166.216 68.0322 161.757 66.3841L158.29 75.764ZM242.701 25V107.507H252.701V25H242.701ZM207.201 71.4368H287.5V61.4368H207.201V71.4368ZM125.088 215.828C110.355 215.828 97.3094 207.803 89.8259 195.509L81.2839 200.708C90.4294 215.733 106.581 225.828 125.088 225.828V215.828ZM160.351 195.509C152.867 207.803 139.822 215.828 125.088 215.828V225.828C143.595 225.828 159.747 215.733 168.893 200.708L160.351 195.509ZM90.3657 141.781H91.5016V131.781H90.3657V141.781ZM158.788 141.781H159.798V131.781H158.788V141.781ZM86.5016 136.781V137.71H96.5016V136.781H86.5016ZM91.5016 132.71H90.3657V142.71H91.5016V132.71ZM95.3657 137.71V136.781H85.3657V137.71H95.3657ZM154.798 136.781V137.71H164.798V136.781H154.798ZM159.798 132.71H158.788V142.71H159.798V132.71ZM163.788 137.71V136.781H153.788V137.71H163.788Z" fill="#CEEAB9"/>
</svg>
