<svg width="300" height="300" viewBox="0 0 300 300" fill="none" xmlns="http://www.w3.org/2000/svg">
<path d="M98.9705 251.022C96.3486 251.888 94.9255 254.716 95.792 257.338C96.6585 259.96 99.4865 261.383 102.108 260.517L98.9705 251.022ZM173.277 260.577L172.828 255.597L173.277 260.577ZM216.92 250.962L219.098 255.462L216.92 250.962ZM258.621 213.351L254.749 210.188L258.621 213.351ZM230.1 189.817L233.62 193.368V193.368L230.1 189.817ZM210.894 208.859L214.415 212.41L214.415 212.41L210.894 208.859ZM158.73 212.308C155.968 212.308 153.73 214.546 153.73 217.308C153.73 220.069 155.968 222.308 158.73 222.308V212.308ZM254.187 187.453L251.43 191.624L254.187 187.453ZM115.3 181.144L117.521 185.624L115.3 181.144ZM167.501 176.41L168.806 171.583L167.501 176.41ZM187.886 181.922L186.581 186.749L187.886 181.922ZM194.345 206.036L190.825 202.485L194.345 206.036ZM179.455 213.757C177.494 215.701 177.481 218.867 179.425 220.828C181.369 222.789 184.535 222.803 186.496 220.858L179.455 213.757ZM102.108 260.517C104.778 259.634 108.814 259.401 114.28 259.788C119.644 260.167 125.804 261.089 132.502 262.132C145.607 264.173 160.853 266.719 173.727 265.557L172.828 255.597C161.455 256.624 147.606 254.363 134.041 252.251C127.404 251.217 120.835 250.226 114.985 249.813C109.237 249.406 103.574 249.5 98.9705 251.022L102.108 260.517ZM173.727 265.557C192.775 263.836 200.778 264.326 219.098 255.462L214.742 246.461C198.35 254.392 192.245 253.843 172.828 255.597L173.727 265.557ZM219.098 255.462C235.312 247.618 252.01 229.348 262.494 216.514L254.749 210.188C244.217 223.081 228.745 239.686 214.742 246.461L219.098 255.462ZM226.58 186.267L207.374 205.308L214.415 212.41L233.62 193.368L226.58 186.267ZM190.321 212.308H158.73V222.308H190.321V212.308ZM207.374 205.308C202.858 209.785 196.725 212.308 190.321 212.308V222.308C199.35 222.308 208.017 218.752 214.415 212.41L207.374 205.308ZM256.944 183.282C247.402 176.975 234.7 178.216 226.58 186.267L233.62 193.368C238.369 188.66 245.83 187.922 251.43 191.624L256.944 183.282ZM262.494 216.514C271.214 205.839 268.05 190.622 256.944 183.282L251.43 191.624C258.017 195.977 259.412 204.48 254.749 210.188L262.494 216.514ZM47.1984 174.231H85.9919V164.231H47.1984V174.231ZM90.6903 178.846V265.385H100.69V178.846H90.6903ZM85.9919 270H47.1984V280H85.9919V270ZM42.5 265.385V178.846H32.5V265.385H42.5ZM47.1984 270C44.5629 270 42.5 267.893 42.5 265.385H32.5C32.5 273.497 39.1213 280 47.1984 280V270ZM90.6903 265.385C90.6903 267.893 88.6274 270 85.9919 270V280C94.069 280 100.69 273.497 100.69 265.385H90.6903ZM85.9919 174.231C88.6273 174.231 90.6903 176.338 90.6903 178.846H100.69C100.69 170.734 94.069 164.231 85.9919 164.231V174.231ZM47.1984 164.231C39.1213 164.231 32.5 170.734 32.5 178.846H42.5C42.5 176.338 44.5629 174.231 47.1984 174.231V164.231ZM102.76 192.941L117.521 185.624L113.08 176.665L98.3188 183.982L102.76 192.941ZM145.661 179.038H149.638V169.038H145.661V179.038ZM166.196 181.237L186.581 186.749L189.191 177.095L168.806 171.583L166.196 181.237ZM190.825 202.485L179.455 213.757L186.496 220.858L197.865 209.586L190.825 202.485ZM186.581 186.749C193.679 188.668 195.956 197.397 190.825 202.485L197.865 209.586C208.531 199.012 203.646 181.004 189.191 177.095L186.581 186.749ZM149.638 179.038C155.232 179.038 160.8 179.778 166.196 181.237L168.806 171.583C162.559 169.894 156.113 169.038 149.638 169.038V179.038ZM117.521 185.624C126.256 181.294 135.891 179.038 145.661 179.038V169.038C134.352 169.038 123.198 171.649 113.079 176.665L117.521 185.624ZM216.769 101.923C216.769 120.363 201.68 135.385 182.976 135.385V145.385C207.122 145.385 226.769 125.967 226.769 101.923H216.769ZM182.976 135.385C164.271 135.385 149.182 120.363 149.182 101.923H139.182C139.182 125.967 158.83 145.385 182.976 145.385V135.385ZM149.182 101.923C149.182 83.4832 164.271 68.4615 182.976 68.4615V58.4615C158.83 58.4615 139.182 77.8795 139.182 101.923H149.182ZM182.976 68.4615C201.68 68.4615 216.769 83.4832 216.769 101.923H226.769C226.769 77.8795 207.122 58.4615 182.976 58.4615V68.4615ZM144.182 96.9231C125.478 96.9231 110.389 81.9014 110.389 63.4615H100.389C100.389 87.5051 120.036 106.923 144.182 106.923V96.9231ZM110.389 63.4615C110.389 45.0217 125.478 30 144.182 30V20C120.036 20 100.389 39.418 100.389 63.4615H110.389ZM144.182 30C162.886 30 177.976 45.0217 177.976 63.4615H187.976C187.976 39.418 168.328 20 144.182 20V30Z" fill="#CEEAB9"/>
</svg>
